<svg width="21" height="21" viewBox="0 0 21 21" fill="none" xmlns="http://www.w3.org/2000/svg">
<path d="M12.25 10.5V17.395C12.285 17.6575 12.1975 17.9375 11.9962 18.1212C11.9153 18.2024 11.8191 18.2667 11.7133 18.3106C11.6074 18.3545 11.494 18.3771 11.3794 18.3771C11.2648 18.3771 11.1513 18.3545 11.0454 18.3106C10.9396 18.2667 10.8434 18.2024 10.7625 18.1212L9.00374 16.3625C8.90837 16.2692 8.83584 16.1551 8.79182 16.0291C8.74781 15.9031 8.73349 15.7687 8.74999 15.6363V10.5H8.72374L3.68374 4.0425C3.54165 3.86009 3.47753 3.62885 3.50541 3.39931C3.53328 3.16978 3.65087 2.9606 3.83249 2.8175C3.99874 2.695 4.18249 2.625 4.37499 2.625H16.625C16.8175 2.625 17.0012 2.695 17.1675 2.8175C17.3491 2.9606 17.4667 3.16978 17.4946 3.39931C17.5225 3.62885 17.4583 3.86009 17.3162 4.0425L12.2762 10.5H12.25Z" fill="#F8F8F4"/>
</svg>
