<svg width="64" height="48" viewBox="0 0 64 48" fill="none" xmlns="http://www.w3.org/2000/svg">
<path d="M48.3641 11.7658C47.2689 9.83744 43.7416 4.21952 36.8798 1.90143C36.3796 1.73145 33.3669 0.855209 29.926 0.928473C18.0823 1.17757 8.40328 11.0155 8.12444 23.0895C7.82835 35.8815 17.9156 46.3466 30.3974 46.3466C33.3871 46.3466 36.0289 45.6491 36.9114 45.359C44.5408 42.8446 48.3785 36.4207 49.514 34.3312" stroke="#FFE066" stroke-width="1.84828" stroke-miterlimit="10" stroke-linecap="round"/>
<path d="M27.7843 27.3271L37.4403 31.6936L62.7375 19.3852C62.7375 19.3852 64.7497 14.4032 55.5508 17.3338L48.5452 20.6073C48.5452 20.6073 42.7125 15.1945 37.2017 16.4107L41.8932 23.6346L36.2905 26.7117L27.7843 27.3271Z" stroke="#FFE066" stroke-width="1.84828" stroke-linecap="round" stroke-linejoin="round"/>
<path d="M56.5569 9.56779C56.5569 9.56779 53.9927 5.24519 44.4919 5.78735" stroke="#FFE066" stroke-width="1.84828" stroke-linecap="round" stroke-linejoin="round"/>
<path d="M29.6787 34.3311C27.379 36.0895 12.2869 36.8661 12.2869 36.8661C-10.5667 36.4705 8.11866 20.8329 8.11866 20.8329" stroke="#FFE066" stroke-width="1.84828" stroke-linecap="round" stroke-linejoin="round"/>
<path d="M24.2169 31.1075L30.5411 33.745L27.379 39.9666" stroke="#FFE066" stroke-width="1.84828" stroke-linecap="round" stroke-linejoin="round"/>
</svg>
