<svg width="40" height="40" viewBox="0 0 40 40" fill="none" xmlns="http://www.w3.org/2000/svg">
<path d="M5 20C5 21.9698 5.38799 23.9204 6.14181 25.7403C6.89563 27.5601 8.00052 29.2137 9.3934 30.6066C10.7863 31.9995 12.4399 33.1044 14.2597 33.8582C16.0796 34.612 18.0302 35 20 35C21.9698 35 23.9204 34.612 25.7403 33.8582C27.5601 33.1044 29.2137 31.9995 30.6066 30.6066C31.9995 29.2137 33.1044 27.5601 33.8582 25.7403C34.612 23.9204 35 21.9698 35 20C35 16.0218 33.4196 12.2064 30.6066 9.3934C27.7936 6.58035 23.9782 5 20 5C16.0218 5 12.2064 6.58035 9.3934 9.3934C6.58035 12.2064 5 16.0218 5 20Z" fill="#A1B5E9" stroke="#A1B5E9" stroke-width="2" stroke-linecap="round" stroke-linejoin="round"/>
<path d="M27.2233 9.88889L10.5566 26.5567L12.7744 28.7744L29.4411 12.1078L27.2233 9.88889ZM14.4466 11.5556C14.1548 11.5553 13.8658 11.6125 13.5961 11.7239C13.3263 11.8353 13.0812 11.9987 12.8746 12.2049C12.6681 12.411 12.5041 12.6558 12.3922 12.9253C12.2803 13.1948 12.2225 13.4837 12.2222 13.7756C12.2219 14.0674 12.2791 14.3564 12.3905 14.6261C12.5019 14.8959 12.6654 15.141 12.8715 15.3476C13.0776 15.5541 13.3225 15.718 13.592 15.83C13.8615 15.9419 14.1504 15.9997 14.4422 16C15.0316 16.0006 15.597 15.767 16.0142 15.3507C16.4314 14.9344 16.6661 14.3694 16.6666 13.78C16.6672 13.1906 16.4337 12.6252 16.0173 12.208C15.601 11.7908 15.036 11.5561 14.4466 11.5556ZM25.5578 22.6667C24.9684 22.6661 24.4029 22.8996 23.9858 23.316C23.5686 23.7323 23.3339 24.2973 23.3333 24.8867C23.3327 25.476 23.5663 26.0415 23.9826 26.4587C24.3989 26.8758 24.9639 27.1105 25.5533 27.1111C25.8451 27.1114 26.1342 27.0542 26.4039 26.9428C26.6736 26.8314 26.9187 26.668 27.1253 26.4618C27.3319 26.2557 27.4958 26.0108 27.6077 25.7413C27.7197 25.4718 27.7775 25.1829 27.7778 24.8911C27.778 24.5993 27.7209 24.3103 27.6094 24.0405C27.498 23.7708 27.3346 23.5257 27.1285 23.3191C26.9223 23.1125 26.6775 22.9486 26.408 22.8367C26.1385 22.7247 25.8496 22.667 25.5578 22.6667Z" fill="#305AA9"/>
</svg>
